<mxfile host="app.diagrams.net" modified="2023-05-17T01:04:55.344Z" agent="Mozilla/5.0 (Windows NT 10.0; Win64; x64) AppleWebKit/537.36 (KHTML, like Gecko) Chrome/113.0.0.0 Safari/537.36" etag="_lx5k_RF3sDtWp1pxH6F" version="21.2.1" type="device">
  <diagram name="페이지-1" id="XPJcmwRnvb5JwDxNcuAd">
    <mxGraphModel dx="1509" dy="796" grid="1" gridSize="10" guides="1" tooltips="1" connect="1" arrows="1" fold="1" page="1" pageScale="1" pageWidth="4681" pageHeight="3300" math="0" shadow="0">
      <root>
        <mxCell id="0" />
        <mxCell id="1" parent="0" />
        <mxCell id="cN9-sDSZrsYlu7Wt87Ck-9" value="" style="rounded=0;orthogonalLoop=1;jettySize=auto;html=1;entryX=0.5;entryY=0;entryDx=0;entryDy=0;exitX=0.5;exitY=1;exitDx=0;exitDy=0;" edge="1" parent="1" source="cN9-sDSZrsYlu7Wt87Ck-1" target="cN9-sDSZrsYlu7Wt87Ck-2">
          <mxGeometry relative="1" as="geometry">
            <mxPoint x="960" y="1010" as="targetPoint" />
          </mxGeometry>
        </mxCell>
        <mxCell id="cN9-sDSZrsYlu7Wt87Ck-1" value="&lt;font style=&quot;font-size: 30px;&quot;&gt;고객정보&lt;/font&gt;" style="rounded=1;arcSize=10;whiteSpace=wrap;html=1;align=center;" vertex="1" parent="1">
          <mxGeometry x="1150" y="1010" width="150" height="70" as="geometry" />
        </mxCell>
        <mxCell id="cN9-sDSZrsYlu7Wt87Ck-2" value="고객ID" style="ellipse;whiteSpace=wrap;html=1;align=center;fontStyle=4;" vertex="1" parent="1">
          <mxGeometry x="820" y="1150" width="100" height="40" as="geometry" />
        </mxCell>
        <mxCell id="cN9-sDSZrsYlu7Wt87Ck-3" value="고객이름" style="ellipse;whiteSpace=wrap;html=1;align=center;" vertex="1" parent="1">
          <mxGeometry x="960" y="1150" width="100" height="40" as="geometry" />
        </mxCell>
        <mxCell id="cN9-sDSZrsYlu7Wt87Ck-4" value="전화번호" style="ellipse;whiteSpace=wrap;html=1;align=center;" vertex="1" parent="1">
          <mxGeometry x="1100" y="1150" width="100" height="40" as="geometry" />
        </mxCell>
        <mxCell id="cN9-sDSZrsYlu7Wt87Ck-5" value="주소" style="ellipse;whiteSpace=wrap;html=1;align=center;" vertex="1" parent="1">
          <mxGeometry x="1230" y="1150" width="100" height="40" as="geometry" />
        </mxCell>
        <mxCell id="cN9-sDSZrsYlu7Wt87Ck-6" value="생년월일" style="ellipse;whiteSpace=wrap;html=1;align=center;" vertex="1" parent="1">
          <mxGeometry x="1360" y="1150" width="100" height="40" as="geometry" />
        </mxCell>
        <mxCell id="cN9-sDSZrsYlu7Wt87Ck-7" value="직업" style="ellipse;whiteSpace=wrap;html=1;align=center;" vertex="1" parent="1">
          <mxGeometry x="1490" y="1150" width="100" height="40" as="geometry" />
        </mxCell>
        <mxCell id="cN9-sDSZrsYlu7Wt87Ck-10" value="" style="rounded=0;orthogonalLoop=1;jettySize=auto;html=1;entryX=0.5;entryY=0;entryDx=0;entryDy=0;exitX=0.5;exitY=1;exitDx=0;exitDy=0;" edge="1" parent="1" source="cN9-sDSZrsYlu7Wt87Ck-1" target="cN9-sDSZrsYlu7Wt87Ck-4">
          <mxGeometry relative="1" as="geometry">
            <mxPoint x="1168" y="1010" as="sourcePoint" />
            <mxPoint x="880" y="1160" as="targetPoint" />
          </mxGeometry>
        </mxCell>
        <mxCell id="cN9-sDSZrsYlu7Wt87Ck-11" value="" style="rounded=0;orthogonalLoop=1;jettySize=auto;html=1;entryX=0.5;entryY=0;entryDx=0;entryDy=0;exitX=0.5;exitY=1;exitDx=0;exitDy=0;" edge="1" parent="1" source="cN9-sDSZrsYlu7Wt87Ck-1" target="cN9-sDSZrsYlu7Wt87Ck-5">
          <mxGeometry relative="1" as="geometry">
            <mxPoint x="1708" y="930" as="sourcePoint" />
            <mxPoint x="1420" y="1080" as="targetPoint" />
          </mxGeometry>
        </mxCell>
        <mxCell id="cN9-sDSZrsYlu7Wt87Ck-12" value="" style="rounded=0;orthogonalLoop=1;jettySize=auto;html=1;entryX=0.5;entryY=0;entryDx=0;entryDy=0;exitX=0.5;exitY=1;exitDx=0;exitDy=0;" edge="1" parent="1" source="cN9-sDSZrsYlu7Wt87Ck-1" target="cN9-sDSZrsYlu7Wt87Ck-6">
          <mxGeometry relative="1" as="geometry">
            <mxPoint x="1558" y="870" as="sourcePoint" />
            <mxPoint x="1270" y="1020" as="targetPoint" />
          </mxGeometry>
        </mxCell>
        <mxCell id="cN9-sDSZrsYlu7Wt87Ck-13" value="" style="rounded=0;orthogonalLoop=1;jettySize=auto;html=1;entryX=0.5;entryY=0;entryDx=0;entryDy=0;exitX=0.5;exitY=1;exitDx=0;exitDy=0;" edge="1" parent="1" source="cN9-sDSZrsYlu7Wt87Ck-1" target="cN9-sDSZrsYlu7Wt87Ck-7">
          <mxGeometry relative="1" as="geometry">
            <mxPoint x="1618" y="860" as="sourcePoint" />
            <mxPoint x="1330" y="1010" as="targetPoint" />
          </mxGeometry>
        </mxCell>
        <mxCell id="cN9-sDSZrsYlu7Wt87Ck-14" value="" style="rounded=0;orthogonalLoop=1;jettySize=auto;html=1;entryX=0.5;entryY=0;entryDx=0;entryDy=0;exitX=0.5;exitY=1;exitDx=0;exitDy=0;" edge="1" parent="1" source="cN9-sDSZrsYlu7Wt87Ck-1" target="cN9-sDSZrsYlu7Wt87Ck-3">
          <mxGeometry relative="1" as="geometry">
            <mxPoint x="1065" y="930" as="sourcePoint" />
            <mxPoint x="990" y="1080" as="targetPoint" />
          </mxGeometry>
        </mxCell>
        <mxCell id="cN9-sDSZrsYlu7Wt87Ck-15" value="&lt;font style=&quot;font-size: 30px;&quot;&gt;계좌정보&lt;/font&gt;" style="rounded=1;arcSize=10;whiteSpace=wrap;html=1;align=center;" vertex="1" parent="1">
          <mxGeometry x="320" y="990" width="150" height="70" as="geometry" />
        </mxCell>
        <mxCell id="cN9-sDSZrsYlu7Wt87Ck-16" value="&lt;font style=&quot;font-size: 15px;&quot;&gt;계좌번호&lt;/font&gt;" style="ellipse;whiteSpace=wrap;html=1;align=center;fontStyle=4;" vertex="1" parent="1">
          <mxGeometry x="20" y="1150" width="100" height="40" as="geometry" />
        </mxCell>
        <mxCell id="cN9-sDSZrsYlu7Wt87Ck-17" value="&lt;font style=&quot;font-size: 15px;&quot;&gt;입출일자&lt;/font&gt;" style="ellipse;whiteSpace=wrap;html=1;align=center;" vertex="1" parent="1">
          <mxGeometry x="160" y="1150" width="100" height="40" as="geometry" />
        </mxCell>
        <mxCell id="cN9-sDSZrsYlu7Wt87Ck-18" value="&lt;font style=&quot;font-size: 15px;&quot;&gt;입출시각&lt;/font&gt;" style="ellipse;whiteSpace=wrap;html=1;align=center;" vertex="1" parent="1">
          <mxGeometry x="290" y="1150" width="100" height="40" as="geometry" />
        </mxCell>
        <mxCell id="cN9-sDSZrsYlu7Wt87Ck-19" value="&lt;font style=&quot;font-size: 15px;&quot;&gt;입출구분&lt;/font&gt;" style="ellipse;whiteSpace=wrap;html=1;align=center;" vertex="1" parent="1">
          <mxGeometry x="430" y="1150" width="100" height="40" as="geometry" />
        </mxCell>
        <mxCell id="cN9-sDSZrsYlu7Wt87Ck-20" value="&lt;font style=&quot;font-size: 15px;&quot;&gt;입금&lt;/font&gt;" style="ellipse;whiteSpace=wrap;html=1;align=center;" vertex="1" parent="1">
          <mxGeometry x="560" y="1150" width="100" height="40" as="geometry" />
        </mxCell>
        <mxCell id="cN9-sDSZrsYlu7Wt87Ck-21" value="출금" style="ellipse;whiteSpace=wrap;html=1;align=center;" vertex="1" parent="1">
          <mxGeometry x="690" y="1150" width="100" height="40" as="geometry" />
        </mxCell>
        <mxCell id="cN9-sDSZrsYlu7Wt87Ck-23" value="" style="rounded=0;orthogonalLoop=1;jettySize=auto;html=1;entryX=0.5;entryY=0;entryDx=0;entryDy=0;exitX=0.5;exitY=1;exitDx=0;exitDy=0;" edge="1" parent="1" source="cN9-sDSZrsYlu7Wt87Ck-15" target="cN9-sDSZrsYlu7Wt87Ck-16">
          <mxGeometry relative="1" as="geometry">
            <mxPoint x="405" y="520" as="sourcePoint" />
            <mxPoint x="60" y="630" as="targetPoint" />
          </mxGeometry>
        </mxCell>
        <mxCell id="cN9-sDSZrsYlu7Wt87Ck-24" value="" style="rounded=0;orthogonalLoop=1;jettySize=auto;html=1;entryX=0.5;entryY=0;entryDx=0;entryDy=0;exitX=0.5;exitY=1;exitDx=0;exitDy=0;" edge="1" parent="1" source="cN9-sDSZrsYlu7Wt87Ck-15" target="cN9-sDSZrsYlu7Wt87Ck-17">
          <mxGeometry relative="1" as="geometry">
            <mxPoint x="365" y="800" as="sourcePoint" />
            <mxPoint x="20" y="910" as="targetPoint" />
          </mxGeometry>
        </mxCell>
        <mxCell id="cN9-sDSZrsYlu7Wt87Ck-25" value="" style="rounded=0;orthogonalLoop=1;jettySize=auto;html=1;entryX=0.5;entryY=0;entryDx=0;entryDy=0;exitX=0.5;exitY=1;exitDx=0;exitDy=0;" edge="1" parent="1" source="cN9-sDSZrsYlu7Wt87Ck-15" target="cN9-sDSZrsYlu7Wt87Ck-18">
          <mxGeometry relative="1" as="geometry">
            <mxPoint x="485" y="670" as="sourcePoint" />
            <mxPoint x="140" y="780" as="targetPoint" />
          </mxGeometry>
        </mxCell>
        <mxCell id="cN9-sDSZrsYlu7Wt87Ck-26" value="" style="rounded=0;orthogonalLoop=1;jettySize=auto;html=1;entryX=0.5;entryY=0;entryDx=0;entryDy=0;exitX=0.5;exitY=1;exitDx=0;exitDy=0;" edge="1" parent="1" source="cN9-sDSZrsYlu7Wt87Ck-15" target="cN9-sDSZrsYlu7Wt87Ck-19">
          <mxGeometry relative="1" as="geometry">
            <mxPoint x="575" y="630" as="sourcePoint" />
            <mxPoint x="230" y="740" as="targetPoint" />
          </mxGeometry>
        </mxCell>
        <mxCell id="cN9-sDSZrsYlu7Wt87Ck-27" value="" style="rounded=0;orthogonalLoop=1;jettySize=auto;html=1;entryX=0.5;entryY=0;entryDx=0;entryDy=0;exitX=0.5;exitY=1;exitDx=0;exitDy=0;" edge="1" parent="1" source="cN9-sDSZrsYlu7Wt87Ck-15" target="cN9-sDSZrsYlu7Wt87Ck-20">
          <mxGeometry relative="1" as="geometry">
            <mxPoint x="585" y="640" as="sourcePoint" />
            <mxPoint x="240" y="750" as="targetPoint" />
          </mxGeometry>
        </mxCell>
        <mxCell id="cN9-sDSZrsYlu7Wt87Ck-28" value="" style="rounded=0;orthogonalLoop=1;jettySize=auto;html=1;entryX=0.5;entryY=0;entryDx=0;entryDy=0;exitX=0.5;exitY=1;exitDx=0;exitDy=0;" edge="1" parent="1" source="cN9-sDSZrsYlu7Wt87Ck-15" target="cN9-sDSZrsYlu7Wt87Ck-21">
          <mxGeometry relative="1" as="geometry">
            <mxPoint x="895" y="540" as="sourcePoint" />
            <mxPoint x="550" y="650" as="targetPoint" />
          </mxGeometry>
        </mxCell>
        <mxCell id="cN9-sDSZrsYlu7Wt87Ck-29" value="&lt;font style=&quot;font-size: 30px;&quot;&gt;거래내역&lt;/font&gt;" style="shape=rhombus;perimeter=rhombusPerimeter;whiteSpace=wrap;html=1;align=center;" vertex="1" parent="1">
          <mxGeometry x="680" y="790" width="260" height="150" as="geometry" />
        </mxCell>
        <mxCell id="cN9-sDSZrsYlu7Wt87Ck-30" value="" style="edgeStyle=entityRelationEdgeStyle;fontSize=12;html=1;endArrow=ERoneToMany;rounded=0;entryX=0;entryY=0.5;entryDx=0;entryDy=0;exitX=0.5;exitY=0;exitDx=0;exitDy=0;" edge="1" parent="1" source="cN9-sDSZrsYlu7Wt87Ck-15" target="cN9-sDSZrsYlu7Wt87Ck-29">
          <mxGeometry width="100" height="100" relative="1" as="geometry">
            <mxPoint x="420" y="1010" as="sourcePoint" />
            <mxPoint x="520" y="910" as="targetPoint" />
          </mxGeometry>
        </mxCell>
        <mxCell id="cN9-sDSZrsYlu7Wt87Ck-31" value="" style="edgeStyle=entityRelationEdgeStyle;fontSize=12;html=1;endArrow=ERoneToMany;rounded=0;entryX=1;entryY=0.5;entryDx=0;entryDy=0;exitX=0.5;exitY=0;exitDx=0;exitDy=0;" edge="1" parent="1" source="cN9-sDSZrsYlu7Wt87Ck-1" target="cN9-sDSZrsYlu7Wt87Ck-29">
          <mxGeometry width="100" height="100" relative="1" as="geometry">
            <mxPoint x="530" y="1020" as="sourcePoint" />
            <mxPoint x="630" y="920" as="targetPoint" />
          </mxGeometry>
        </mxCell>
      </root>
    </mxGraphModel>
  </diagram>
</mxfile>
